<svg id="canvas" height="auto" xmlns="http://www.w3.org/2000/svg" version="1.1" xmlns:xlink="http://www.w3.org/1999/xlink" viewBox="0 0 900 512" width="auto" style="width: auto; height: auto;"><rect width="900" height="512" fill="#000000ff"/><path d="M121.34057645941891 315.6312941122751C85.08159523315953 338.0196288742968 45.56775293649696 352.36103094241946 2.198184650954147 357.44724343006635C-41.171383634588665 362.53345591771324 -96.36737460947813 364.4864598181621 -138.8768332538378 346.1485690381563C-181.3862918981974 327.8106782581506 -219.52313282288355 282.1925742468909 -252.85856721520366 247.41989875003208C-286.1940016075238 212.64722325317325 -323.65862207891496 183.76821034760155 -338.8894396077584 137.51251605700315C-354.1202571366018 91.25682176640476 -343.8745733927268 19.06049450347757 -344.24347238826414 -30.114266993558147C-344.6123713838015 -79.28902849059386 -358.86130719981577 -123.50051945316429 -341.1028335809826 -157.53605292521107C-323.3443599621494 -191.57158639725785 -271.74184881814847 -204.7890249111794 -237.69263067526515 -234.3274678258388C-203.64341253238183 -263.8659107404982 -173.99668442729387 -315.5851898164123 -136.80752472368263 -334.76671041316746C-99.6183650200714 -353.9482310099226 -57.376452664579006 -349.16148685633624 -14.557672453597661 -349.41659140636966C28.261107757383684 -349.6716959564031 78.49699593198989 -353.71784515339345 120.10515654220558 -336.29733771336805C161.71331715242127 -318.87683027334265 200.794133907306 -277.45428988906684 235.0912912076965 -244.89354676621707C269.388448508087 -212.3328036433673 304.1732315244668 -183.22523964472225 325.88810034454855 -140.9328789762694C347.6029691646303 -98.64051830781654 361.50736152517675 -39.82777019361242 365.3805041281871 8.86061724450002C369.2536467311975 57.54900468261246 373.39836131589027 115.4880093834991 349.12695596261085 151.19744565240512C324.85555060933143 186.9068819213112 257.7164685923758 195.71159344795785 219.75207200851048 223.11723485793618C181.78767542464516 250.5228762679145 157.5995576856783 293.2429593502534 121.34057645941891 315.6312941122751C85.08159523315953 338.0196288742968 45.56775293649696 352.36103094241946 2.198184650954147 357.44724343006635 " fill="url(#SvgjsLinearGradient1108)"/><defs><linearGradient gradientTransform="matrix(1,0,0,1,0,0)" id="SvgjsLinearGradient1108"><stop stop-color="#6366f1ff" offset="0"/><stop stop-color="#ee63f1ff" offset="1"/></linearGradient><linearGradient gradientTransform="matrix(1,0,0,1,0,0)" id="SvgjsLinearGradient1109"><stop stop-color="#6366f1ff" offset="0"/><stop stop-color="#ee63f1ff" offset="1"/></linearGradient></defs><path d="M1030.4608278393575 930.6635230746592C994.5181538538588 954.8221744736985 954.203901394929 973.7697618218145 910.512305872931 978.9301603713213C866.8207103509332 984.0905589208281 810.6375437395457 982.1349202315616 768.3112547073704 961.6259143717002C725.9849656751951 941.1169085118388 690.1757363887261 891.2833415737989 656.5545716798797 855.876125212153C622.9334069710333 820.4689088505072 584.3294515485397 787.4078455174256 566.584266454292 749.182616201825C548.8390813600441 710.9573868862244 549.8753420500734 671.1910651002505 550.0834611143929 626.5247493185492C550.2915801787124 581.8584335368479 549.0261955368493 523.8165005437569 567.8329808402086 481.1847215116172C586.6397661435678 438.5529424794775 629.1580476458892 405.0515739802164 662.9241729345489 370.734075125711C696.6902982232086 336.41657627120566 733.4836510370759 291.29836211844486 770.4297325721667 275.27972838458487C807.3758141072576 259.26109465072494 843.5246581486776 274.9945448995618 884.600662145094 274.6222727225513C925.6766661415104 274.25000054554084 978.3977858790988 258.7461957327396 1016.8857565506648 273.0460953225222C1055.373727222231 287.34599491230483 1084.5187046517394 329.2963591697679 1115.5284861744906 360.421670261247C1146.5382676972417 391.5469813527261 1191.4644176357722 423.87329002342693 1202.9444456871709 459.7979618713967C1214.4244737385695 495.72263371936646 1189.5102468705863 535.6088366816894 1184.4086544828829 575.9697013490655C1179.3070620951794 616.3305660164417 1182.041608810443 658.9617247709839 1172.3348913609498 701.9631498756538C1162.6281739114565 744.9645749803237 1149.8140270395227 795.8615231105846 1126.168349785924 833.9782519770855C1102.5226725323253 872.0949808435864 1066.4035018248564 906.5048716756199 1030.4608278393575 930.6635230746592C994.5181538538588 954.8221744736985 954.203901394929 973.7697618218145 910.512305872931 978.9301603713213 " fill="url(#SvgjsLinearGradient1109)" transform="matrix(-1,1.2246467991473532e-16,-1.2246467991473532e-16,-1,1755.93505859375,1248.3457641601562)"/></svg>